HIERARCHY
ROOT Hips
{
	OFFSET 0.00000 0.00000 0.00000
	CHANNELS 6 Xposition Yposition Zposition Zrotation Yrotation Xrotation 
	JOINT RightUpLegDummy
	{
		OFFSET 0 0 0
		CHANNELS 3 Zrotation Yrotation Xrotation
		JOINT RightUpLeg
		{
			OFFSET -3.52197 -3.41223 0.04002
			CHANNELS 3 Zrotation Yrotation Xrotation
			JOINT RightLeg
			{
				OFFSET 0.00006 -17.42390 1.60435
				CHANNELS 3 Zrotation Yrotation Xrotation
				JOINT RightFoot
				{
					OFFSET 0.06153 -16.50078 -1.63901
					CHANNELS 3 Zrotation Yrotation Xrotation
					JOINT RightToes
					{
						OFFSET 0.00298 -1.73825 3.34613
						CHANNELS 3 Zrotation Yrotation Xrotation
						End Site
						{
							OFFSET 0.00480 -0.05416 3.85043
						}
					}
				}
			}
		}
	}
	JOINT SpineDummy
	{
		OFFSET 0 0 0
		CHANNELS 3 Zrotation Yrotation Xrotation
		JOINT Spine
		{
			OFFSET 0.00000 4.68130 0.00000
			CHANNELS 3 Zrotation Yrotation Xrotation
			JOINT Spine1
			{
				OFFSET -0.00000 10.10138 0.05002
				CHANNELS 3 Zrotation Yrotation Xrotation
				JOINT HEadDummy
				{
					OFFSET 0 0 0
					CHANNELS 3 Zrotation Yrotation Xrotation
					JOINT Head
					{
						OFFSET -0.00000 3.43865 0.00438
						CHANNELS 3 Zrotation Yrotation Xrotation
						End Site
						{
							OFFSET -0.11417 5.02924 0.98962
						}
					}
				}
				JOINT LeftShoulder1Dummy
				{
					OFFSET 0 0 0
					CHANNELS 3 Zrotation Yrotation Xrotation
					JOINT LeftShoulder1
					{
						OFFSET 3.53937 -0.14262 -0.08662
						CHANNELS 3 Zrotation Yrotation Xrotation
						JOINT LeftArm
						{
							OFFSET 4.04833 -0.00133 0.12681
							CHANNELS 3 Zrotation Yrotation Xrotation
							JOINT LeftForeArm
							{
								OFFSET 10.33880 -0.01036 -0.55515
								CHANNELS 3 Zrotation Yrotation Xrotation
								JOINT LeftHand
								{
									OFFSET 8.69677 0.07543 0.40060
									CHANNELS 3 Zrotation Yrotation Xrotation
									End Site
									{
										OFFSET 5.28377 -0.21905 0.59205
									}
								}
							}
						}
					}
				}
				JOINT RightShoulderDummy
				{
					OFFSET 0 0 0
					CHANNELS 3 Zrotation Yrotation Xrotation
					JOINT RightShoulder
					{
						OFFSET -3.53937 -0.14262 -0.08660
						CHANNELS 3 Zrotation Yrotation Xrotation
						JOINT RightArm
						{
							OFFSET -4.04833 -0.00133 0.12683
							CHANNELS 3 Zrotation Yrotation Xrotation
							JOINT RightForeArm
							{
								OFFSET -10.37987 -0.01039 -0.55511
								CHANNELS 3 Zrotation Yrotation Xrotation
								JOINT RightHand
								{
									OFFSET -8.67398 0.07538 0.40058
									CHANNELS 3 Zrotation Yrotation Xrotation
									End Site
									{
										OFFSET -5.24810 -0.21916 0.59204
									}
								}
							}
						}
					}
				}
			}
		}
	}
	JOINT LeftUpLegDummy
	{
		OFFSET 0 0 0
		CHANNELS 3 Zrotation Yrotation Xrotation
		JOINT LeftUpLeg
		{
			OFFSET 3.52197 -3.41223 0.04002
			CHANNELS 3 Zrotation Yrotation Xrotation
			JOINT LeftLeg
			{
				OFFSET -0.00012 -17.42399 1.60337
				CHANNELS 3 Zrotation Yrotation Xrotation
				JOINT LeftFoot
				{
					OFFSET -0.09972 -16.50070 -1.63802
					CHANNELS 3 Zrotation Yrotation Xrotation
					JOINT LeftToes
					{
						OFFSET -0.01575 -1.73823 3.34611
						CHANNELS 3 Zrotation Yrotation Xrotation
						End Site
						{
							OFFSET 0.03150 -0.01868 3.85031
						}
					}
				}
			}
		}
	}
}
MOTION
Frames: 11
Frame Time: 0.033333
-46.1215 39.5156 78.4035 179.0190 2.2084 176.9190 0.0000 0.0000 0.0000 4.4590 -1.7426 0.1675 2.4920 3.5860 8.8215 -5.2180 0.2159 -6.1110 0.0000 -0.0000 -0.0000 0.0000 0.0000 0.0000 0.4282 -0.7617 3.1874 2.7307 -1.3496 1.3596 -0.0000 0.0000 -0.0000 3.6889 -1.9116 -6.3946 -0.0000 0.0000 -0.0000 -33.7057 -2.6600 2.4490 -48.9373 -13.8313 -9.3803 -5.3454 0.4848 177.2690 -37.8986 23.5960 -7.1980 -0.0000 0.0000 -0.0000 35.6120 5.3007 3.6668 38.3041 6.0475 -16.5319 10.8140 -1.4057 25.3487 -12.5480 0.8885 -0.6708 0.0000 0.0000 0.0000 2.5868 1.8151 -0.7439 1.7986 4.0347 13.5522 -0.6030 0.0673 -10.1637 0.0000 0.0000 -0.0000
-46.1424 39.4895 78.4125 179.0360 2.0977 176.8890 0.0000 0.0000 0.0000 4.5212 -1.7111 0.0842 2.3581 3.1211 9.0282 -5.4332 0.2122 -6.3795 0.0000 -0.0000 -0.0000 0.0000 0.0000 0.0000 0.4637 -0.7065 3.4502 2.6218 -1.2595 0.9418 -0.0000 0.0000 -0.0000 3.7583 -1.9965 -6.2571 -0.0000 0.0000 -0.0000 -33.5934 -2.7728 2.4866 -47.4225 -14.3925 -15.7510 -3.3149 0.4527 -156.6663 -18.3173 11.3758 -1.0290 -0.0000 0.0000 -0.0000 35.7570 5.3087 3.6832 38.2937 5.6965 -16.4141 10.9227 -1.2296 24.8935 -13.1969 0.6277 -0.6784 0.0000 0.0000 0.0000 2.5883 1.9300 -0.6063 1.7112 3.8645 13.2574 -0.3183 0.0646 -10.3095 0.0000 0.0000 -0.0000
-46.1737 39.5110 78.4283 179.0880 1.9123 176.9700 0.0000 0.0000 0.0000 4.6665 -1.4341 0.0960 1.9970 2.6763 8.7506 -5.4981 0.2224 -6.2360 0.0000 -0.0000 -0.0000 0.0000 0.0000 0.0000 0.3718 -0.6236 3.3147 2.7563 -1.2001 0.9907 -0.0000 0.0000 -0.0000 3.7335 -1.9972 -6.3523 -0.0000 0.0000 -0.0000 -33.5795 -2.8568 2.5190 -46.3372 -14.8359 -19.9857 -2.1822 0.7815 -140.2309 -1.9097 5.9943 0.0703 -0.0000 0.0000 -0.0000 35.5142 5.2538 3.6386 38.6195 5.7269 -16.4641 10.9137 -1.1966 24.8173 -13.6941 0.3905 -0.6782 0.0000 0.0000 0.0000 2.6037 2.1471 -0.6847 1.5914 3.5800 13.0790 -0.0867 0.0606 -9.9297 0.0000 0.0000 -0.0000
-46.2194 39.5393 78.4477 179.1390 1.5701 177.1170 0.0000 0.0000 0.0000 4.8439 -1.0803 0.0805 1.5009 2.0416 8.3644 -5.3689 0.2272 -6.0264 0.0000 -0.0000 -0.0000 0.0000 0.0000 0.0000 0.2157 -0.7111 2.6844 3.0520 -1.3689 1.7711 -0.0000 0.0000 -0.0000 3.6091 -1.6754 -6.6864 -0.0000 0.0000 -0.0000 -33.6638 -2.7627 2.4870 -47.0005 -14.9291 -17.2991 -3.1760 -0.1696 -139.8341 -1.9353 -5.3095 0.2408 -0.0000 0.0000 -0.0000 35.0124 5.1800 3.5635 39.0744 6.4386 -16.6078 10.7789 -1.4890 25.3261 -13.4827 0.4050 -0.6691 0.0000 0.0000 0.0000 2.5541 2.1721 -0.8513 1.5235 3.4031 12.8915 0.1197 0.0547 -9.4424 0.0000 0.0000 -0.0000
-46.2881 39.5646 78.4647 179.1950 1.0371 177.1080 0.0000 0.0000 0.0000 4.8575 -1.0043 0.2313 1.2738 1.5277 8.0157 -5.1846 0.2268 -5.8598 0.0000 -0.0000 -0.0000 0.0000 0.0000 0.0000 0.3086 -0.9596 2.7675 2.9739 -1.6096 1.6419 -0.0000 0.0000 -0.0000 3.5293 -1.5506 -6.6113 -0.0000 0.0000 -0.0000 -33.7259 -2.6526 2.4474 -47.8030 -14.3584 -13.5157 -4.6580 -4.6443 -135.7740 1.3081 -21.4709 -0.1644 -0.0000 0.0000 -0.0000 35.1275 5.2112 3.5865 39.0082 6.5687 -16.4958 10.7920 -1.5162 25.5550 -13.1622 0.4651 -0.6594 0.0000 0.0000 0.0000 2.4731 1.9620 -0.8274 1.4785 3.2163 12.6241 0.0709 0.0524 -8.9606 0.0000 0.0000 -0.0000
-46.3586 39.5832 78.4576 179.2590 0.8496 176.8450 0.0000 0.0000 0.0000 4.7273 -1.2269 0.6597 1.4418 1.6185 7.7687 -5.1720 0.2300 -5.7859 0.0000 -0.0000 -0.0000 0.0000 0.0000 0.0000 0.6033 -0.9775 3.1071 2.5521 -1.5433 1.3897 -0.0000 0.0000 -0.0000 3.6835 -1.7720 -6.3615 -0.0000 0.0000 -0.0000 -33.4210 -2.7050 2.4490 -48.7367 -13.6775 -10.0522 -5.7212 -8.9359 -132.1487 6.3168 -34.3642 -1.8841 -0.0000 0.0000 -0.0000 35.4076 5.2448 3.6253 38.9769 6.3147 -16.3334 10.8648 -1.1831 25.3079 -13.0164 0.5042 -0.6561 0.0000 0.0000 0.0000 2.4953 2.0679 -0.2809 1.3479 2.9009 12.0315 -0.2265 0.0570 -8.6228 0.0000 0.0000 -0.0000
-46.3996 39.6016 78.4144 179.2320 1.3943 176.5180 0.0000 0.0000 0.0000 4.5686 -1.4399 1.1542 1.6823 2.3776 7.6461 -5.3049 0.2380 -5.7715 0.0000 -0.0000 -0.0000 0.0000 0.0000 0.0000 0.7257 -0.5775 3.1671 2.2438 -1.0730 1.5356 -0.0000 0.0000 -0.0000 3.8134 -2.0189 -6.2369 -0.0000 0.0000 -0.0000 -33.1557 -2.8214 2.4780 -49.2162 -13.2686 -8.4400 -5.4093 -11.5127 -138.2642 7.7787 -43.7008 -3.5711 -0.0000 0.0000 -0.0000 35.4406 5.2283 3.6214 39.2123 6.1019 -16.2558 10.8976 -0.8023 25.0801 -12.6322 0.6963 -0.6559 0.0000 0.0000 0.0000 2.5734 2.6581 0.6786 1.1306 2.7434 11.0728 -0.4867 0.0632 -8.4012 0.0000 0.0000 -0.0000
-46.4173 39.6271 78.3555 179.0910 2.1792 176.4160 0.0000 0.0000 0.0000 4.4597 -1.4187 1.4101 1.6678 3.1452 7.5351 -5.3521 0.2409 -5.7396 0.0000 -0.0000 -0.0000 0.0000 0.0000 0.0000 0.4942 -0.1073 2.6225 2.3745 -0.6237 2.2368 -0.0000 0.0000 -0.0000 3.7434 -2.0212 -6.3390 -0.0000 0.0000 -0.0000 -33.2519 -2.7685 2.4633 -49.0790 -13.2957 -8.2431 -7.6393 -9.4166 -107.5299 11.1115 -26.7396 0.8748 -0.0000 0.0000 -0.0000 35.1832 5.1920 3.5835 39.5436 6.3506 -16.2082 10.8810 -0.7860 25.1507 -12.1752 0.9081 -0.6526 0.0000 0.0000 0.0000 2.5423 3.1333 1.4646 0.9603 3.0299 10.1111 -0.4887 0.0613 -8.1691 0.0000 0.0000 -0.0000
-46.4505 39.6571 78.3232 178.9560 2.2119 176.5040 0.0000 0.0000 0.0000 4.3475 -1.3347 1.4879 1.4686 3.1403 7.2681 -5.2133 0.2382 -5.6572 0.0000 -0.0000 -0.0000 0.0000 0.0000 0.0000 0.1984 -0.0403 2.1759 2.6042 -0.6025 2.6185 -0.0000 0.0000 -0.0000 3.6314 -2.1330 -6.4525 -0.0000 0.0000 -0.0000 -33.4119 -2.5985 2.4066 -48.7792 -13.3940 -7.7439 -15.8941 -1.9332 13.2046 29.4301 38.8237 7.1173 -0.0000 0.0000 -0.0000 35.0924 5.2074 3.5818 39.6434 6.6146 -16.0907 10.9010 -0.9365 25.1364 -12.2734 0.8426 -0.6514 0.0000 0.0000 0.0000 2.3233 3.0115 1.7073 0.9456 3.3031 9.5360 -0.3374 0.0532 -7.8776 0.0000 0.0000 -0.0000
-46.5128 39.6840 78.3244 178.9430 1.4487 176.5520 0.0000 0.0000 0.0000 4.2178 -1.3969 1.6498 1.3410 2.4923 6.8384 -5.0440 0.2358 -5.5307 0.0000 -0.0000 -0.0000 0.0000 0.0000 0.0000 0.3113 -0.2683 2.5234 2.3129 -0.7675 1.9948 -0.0000 0.0000 -0.0000 3.6889 -2.4800 -6.4825 -0.0000 0.0000 -0.0000 -33.1848 -2.5646 2.3792 -48.4094 -13.2536 -10.7239 -14.4432 0.3480 14.5862 20.9106 32.9513 5.0498 -0.0000 0.0000 -0.0000 35.4705 5.2724 3.6424 39.4911 6.2489 -15.9476 10.9834 -0.7895 24.8673 -12.5232 0.7253 -0.6533 0.0000 0.0000 0.0000 2.0883 2.5545 1.6659 1.0211 3.1120 9.2869 -0.2459 0.0509 -7.6043 0.0000 0.0000 -0.0000
-46.5744 39.7031 78.3256 179.0210 0.7850 176.5030 0.0000 0.0000 0.0000 4.1575 -1.4908 1.9126 1.3080 1.9295 6.4438 -5.0007 0.2396 -5.4049 0.0000 -0.0000 -0.0000 0.0000 0.0000 0.0000 0.7914 -0.3431 3.2297 1.5922 -0.6911 1.0148 -0.0000 0.0000 -0.0000 4.0293 -2.3546 -6.3756 -0.0000 0.0000 -0.0000 -32.7576 -2.6890 2.4014 -48.2973 -13.0163 -11.6957 -13.7292 2.0558 21.6033 17.1103 30.6781 3.7017 -0.0000 0.0000 -0.0000 35.9922 5.3277 3.7124 39.3373 5.5350 -15.8731 11.0531 -0.4351 24.8098 -11.9657 1.0591 -0.6550 0.0000 0.0000 0.0000 1.9893 2.2152 1.7352 1.0689 2.7872 9.0524 -0.1961 0.0513 -7.4182 0.0000 0.0000 -0.0000
